<?xml version="1.0" encoding="UTF-8" standalone="no"?><!-- Generator: Gravit.io --><svg xmlns="http://www.w3.org/2000/svg" xmlns:xlink="http://www.w3.org/1999/xlink" style="isolation:isolate" viewBox="0 0 24 24" width="24pt" height="24pt"><defs><clipPath id="_clipPath_Zntg3XktsnxRqCNCkEcJ2umkSmuPKrVl"><rect width="24" height="24"/></clipPath></defs><g clip-path="url(#_clipPath_Zntg3XktsnxRqCNCkEcJ2umkSmuPKrVl)"><clipPath id="_clipPath_jcvW6rJ05gp5jon7uUWMSpaGeQ5tXWmE"><rect x="0" y="0" width="24" height="24" transform="matrix(1,0,0,1,0,0)" fill="rgb(255,255,255)"/></clipPath><g clip-path="url(#_clipPath_jcvW6rJ05gp5jon7uUWMSpaGeQ5tXWmE)"><g><g><radialGradient id="_rgradient_16" fx="0.5000018204656751" fy="0.5000417188151829" cx="0.5000018204656751" cy="0.5000417188151829" r="1" gradientTransform="matrix(20.599,0,0,2.247,1.685,20.974)" gradientUnits="userSpaceOnUse"><stop offset="0%" stop-opacity="0.2" style="stop-color:rgb(0,0,0)"/><stop offset="100%" stop-opacity="0" style="stop-color:rgb(0,0,0)"/></radialGradient><path d=" M 22.285 22.098 C 22.284 22.714 17.635 23.221 11.985 23.221 C 6.335 23.221 1.686 22.714 1.685 22.098 L 1.685 22.097 C 1.685 21.481 6.335 20.974 11.985 20.974 C 17.635 20.974 22.285 21.481 22.285 22.097 L 22.285 22.098 L 22.285 22.098 L 22.285 22.098 Z " fill="url(#_rgradient_16)"/><g style="opacity:0.4;"><g style="opacity:0.4;"><g style="opacity:0.4;"><g opacity="0.4"><radialGradient id="_rgradient_17" fx="-0.001409145353342467" fy="0.5" cx="-0.001409145353342467" cy="0.5" r="1" gradientTransform="matrix(2.661,0,0,0.936,19.436,21.723)" gradientUnits="userSpaceOnUse"><stop offset="0%" stop-opacity="0.4" style="stop-color:rgb(24,24,24)"/><stop offset="100%" stop-opacity="0" style="stop-color:rgb(24,24,24)"/></radialGradient><rect x="19.436" y="21.723" width="2.661" height="0.936" transform="matrix(1,0,0,1,0,0)" fill="url(#_rgradient_17)"/></g></g></g><g style="opacity:0.4;"><g style="opacity:0.4;"><g opacity="0.4"><radialGradient id="_rgradient_18" fx="1.0013457338124436" fy="0.5" cx="1.0013457338124436" cy="0.5" r="1" gradientTransform="matrix(2.661,0,0,0.936,1.873,21.723)" gradientUnits="userSpaceOnUse"><stop offset="0%" stop-opacity="0.4" style="stop-color:rgb(24,24,24)"/><stop offset="100%" stop-opacity="0" style="stop-color:rgb(24,24,24)"/></radialGradient><rect x="1.873" y="21.723" width="2.661" height="0.936" transform="matrix(1,0,0,1,0,0)" fill="url(#_rgradient_18)"/></g></g></g><g style="opacity:0.4;"><g style="opacity:0.4;"><g opacity="0.4"><linearGradient id="_lgradient_12" x1="0.5377906391545042" y1="1.0040048057669182" x2="0.5377906391545046" y2="1.0035081921461393" gradientTransform="matrix(14.902,0,0,0.936,4.534,21.723)" gradientUnits="userSpaceOnUse"><stop offset="0%" stop-opacity="0" style="stop-color:rgb(24,24,24)"/><stop offset="50%" stop-opacity="0.4" style="stop-color:rgb(24,24,24)"/><stop offset="100%" stop-opacity="0" style="stop-color:rgb(24,24,24)"/></linearGradient><rect x="4.534" y="21.723" width="14.902" height="0.936" transform="matrix(1,0,0,1,0,0)" fill="url(#_lgradient_12)"/></g></g></g></g><radialGradient id="_rgradient_19" fx="0.4999970551569111" fy="-0.0028741668548094013" cx="0.4999970551569111" cy="-0.0028741668548094013" r="1" gradientTransform="matrix(19.101,0,0,19.101,2.435,2.996)" gradientUnits="userSpaceOnUse"><stop offset="0%" stop-opacity="1" style="stop-color:rgb(244,216,77)"/><stop offset="100%" stop-opacity="1" style="stop-color:rgb(208,145,27)"/></radialGradient><path d=" M 21.536 3.839 C 21.536 3.374 21.158 2.996 20.693 2.996 L 3.277 2.996 C 2.812 2.996 2.435 3.374 2.435 3.839 L 2.435 21.255 C 2.435 21.72 2.812 22.097 3.277 22.097 L 20.693 22.097 C 21.158 22.097 21.536 21.72 21.536 21.255 L 21.536 3.839 L 21.536 3.839 L 21.536 3.839 Z " fill-rule="evenodd" fill="url(#_rgradient_19)"/></g></g></g><defs><filter id="BmCoreJWzUMwcnBt1L3CiuEBCRXq5qzo" x="-200%" y="-200%" width="400%" height="400%" filterUnits="objectBoundingBox" color-interpolation-filters="sRGB"><feOffset xmlns="http://www.w3.org/2000/svg" in="SourceGraphic" dx="2" dy="2"/><feGaussianBlur xmlns="http://www.w3.org/2000/svg" stdDeviation="0.8587218125678057" result="pf_100_offsetBlur"/><feComposite xmlns="http://www.w3.org/2000/svg" in="SourceGraphic" in2="pf_100_offsetBlur" result="pf_100_inverse" operator="out"/><feFlood xmlns="http://www.w3.org/2000/svg" flood-color="#000000" flood-opacity="0.05" result="pf_100_color"/><feComposite xmlns="http://www.w3.org/2000/svg" in="pf_100_color" in2="pf_100_inverse" operator="in" result="pf_100_shadow"/><feComposite xmlns="http://www.w3.org/2000/svg" in="pf_100_shadow" in2="SourceGraphic" operator="over"/></filter></defs><g filter="url(#BmCoreJWzUMwcnBt1L3CiuEBCRXq5qzo)"><linearGradient id="_lgradient_13" x1="0" y1="0.5" x2="1" y2="0.5" gradientTransform="matrix(9.852,0,0,8.309,7.074,7.845)" gradientUnits="userSpaceOnUse"><stop offset="0%" stop-opacity="1" style="stop-color:rgb(255,255,255)"/><stop offset="100%" stop-opacity="1" style="stop-color:rgb(219,219,219)"/></linearGradient><mask id="_mask_uJSO4i4UXOtbYEsXNqNXHIP0NuRoUGEG" x="-200%" y="-200%" width="400%" height="400%"><rect x="-200%" y="-200%" width="400%" height="400%" style="fill:white;"/><path d=" M 8.991 11.041 L 7.713 11.041 C 7.36 11.041 7.074 11.327 7.074 11.68 L 7.074 15.515 C 7.074 15.869 7.36 16.155 7.713 16.155 L 8.991 16.155 C 9.344 16.155 9.631 15.869 9.631 15.515 L 9.631 11.68 C 9.631 11.327 9.344 11.041 8.991 11.041 Z  M 16.799 13.051 C 16.799 12.866 16.74 12.696 16.64 12.557 C 16.815 12.402 16.926 12.175 16.926 11.922 C 16.926 11.455 16.545 11.122 16.08 11.076 C 15.787 11.047 15.1 10.974 15.1 10.974 L 13.466 10.881 L 13.876 9.411 C 13.929 9.139 13.954 8.862 13.939 8.585 C 13.916 8.151 13.808 7.845 13.306 7.845 C 12.994 7.845 12.889 8.048 12.796 8.328 C 12.65 8.765 12.45 9.181 12.248 9.594 L 11.287 10.633 C 11.109 10.825 10.898 10.987 10.657 11.089 C 10.395 11.199 10.27 11.488 10.27 11.827 L 10.27 15.369 C 10.27 15.803 10.621 16.155 11.055 16.155 L 14.743 16.155 C 15.065 16.155 15.386 16.108 15.692 16.009 C 15.828 15.965 15.952 15.913 16.018 15.857 C 16.218 15.725 16.35 15.498 16.35 15.24 C 16.35 15.115 16.319 14.998 16.264 14.894 C 16.477 14.741 16.616 14.49 16.616 14.208 C 16.616 14.028 16.56 13.862 16.465 13.725 C 16.668 13.57 16.799 13.326 16.799 13.051 L 16.799 13.051 Z " fill-rule="evenodd" fill="black" stroke="none"/></mask><linearGradient id="_lgradient_14" x1="1" y1="0.4999999999999999" x2="0" y2="0.5"><stop offset="0%" stop-opacity="1" style="stop-color:rgb(238,217,68)"/><stop offset="100%" stop-opacity="1" style="stop-color:rgb(208,145,27)"/></linearGradient><path d=" M 8.991 11.041 L 7.713 11.041 C 7.36 11.041 7.074 11.327 7.074 11.68 L 7.074 15.515 C 7.074 15.869 7.36 16.155 7.713 16.155 L 8.991 16.155 C 9.344 16.155 9.631 15.869 9.631 15.515 L 9.631 11.68 C 9.631 11.327 9.344 11.041 8.991 11.041 Z  M 16.799 13.051 C 16.799 12.866 16.74 12.696 16.64 12.557 C 16.815 12.402 16.926 12.175 16.926 11.922 C 16.926 11.455 16.545 11.122 16.08 11.076 C 15.787 11.047 15.1 10.974 15.1 10.974 L 13.466 10.881 L 13.876 9.411 C 13.929 9.139 13.954 8.862 13.939 8.585 C 13.916 8.151 13.808 7.845 13.306 7.845 C 12.994 7.845 12.889 8.048 12.796 8.328 C 12.65 8.765 12.45 9.181 12.248 9.594 L 11.287 10.633 C 11.109 10.825 10.898 10.987 10.657 11.089 C 10.395 11.199 10.27 11.488 10.27 11.827 L 10.27 15.369 C 10.27 15.803 10.621 16.155 11.055 16.155 L 14.743 16.155 C 15.065 16.155 15.386 16.108 15.692 16.009 C 15.828 15.965 15.952 15.913 16.018 15.857 C 16.218 15.725 16.35 15.498 16.35 15.24 C 16.35 15.115 16.319 14.998 16.264 14.894 C 16.477 14.741 16.616 14.49 16.616 14.208 C 16.616 14.028 16.56 13.862 16.465 13.725 C 16.668 13.57 16.799 13.326 16.799 13.051 L 16.799 13.051 Z " fill-rule="evenodd" fill="url(#_lgradient_13)" mask="url(#_mask_uJSO4i4UXOtbYEsXNqNXHIP0NuRoUGEG)" vector-effect="non-scaling-stroke" stroke-width="0.2" stroke="url(#_lgradient_14)" stroke-linejoin="round" stroke-linecap="butt" stroke-miterlimit="2"/><path d=" M 8.991 11.041 L 7.713 11.041 C 7.36 11.041 7.074 11.327 7.074 11.68 L 7.074 15.515 C 7.074 15.869 7.36 16.155 7.713 16.155 L 8.991 16.155 C 9.344 16.155 9.631 15.869 9.631 15.515 L 9.631 11.68 C 9.631 11.327 9.344 11.041 8.991 11.041 Z  M 16.799 13.051 C 16.799 12.866 16.74 12.696 16.64 12.557 C 16.815 12.402 16.926 12.175 16.926 11.922 C 16.926 11.455 16.545 11.122 16.08 11.076 C 15.787 11.047 15.1 10.974 15.1 10.974 L 13.466 10.881 L 13.876 9.411 C 13.929 9.139 13.954 8.862 13.939 8.585 C 13.916 8.151 13.808 7.845 13.306 7.845 C 12.994 7.845 12.889 8.048 12.796 8.328 C 12.65 8.765 12.45 9.181 12.248 9.594 L 11.287 10.633 C 11.109 10.825 10.898 10.987 10.657 11.089 C 10.395 11.199 10.27 11.488 10.27 11.827 L 10.27 15.369 C 10.27 15.803 10.621 16.155 11.055 16.155 L 14.743 16.155 C 15.065 16.155 15.386 16.108 15.692 16.009 C 15.828 15.965 15.952 15.913 16.018 15.857 C 16.218 15.725 16.35 15.498 16.35 15.24 C 16.35 15.115 16.319 14.998 16.264 14.894 C 16.477 14.741 16.616 14.49 16.616 14.208 C 16.616 14.028 16.56 13.862 16.465 13.725 C 16.668 13.57 16.799 13.326 16.799 13.051 L 16.799 13.051 Z " fill-rule="evenodd" fill="url(#_lgradient_13)"/></g></g></svg>