<?xml version="1.0" encoding="UTF-8" standalone="no"?><!-- Generator: Gravit.io --><svg xmlns="http://www.w3.org/2000/svg" xmlns:xlink="http://www.w3.org/1999/xlink" style="isolation:isolate" viewBox="0 0 128 128" width="128pt" height="128pt"><defs><clipPath id="_clipPath_dNFoCVBkbyWpIkBDNwr9gJ1HsnxyshTY"><rect width="128" height="128"/></clipPath></defs><g clip-path="url(#_clipPath_dNFoCVBkbyWpIkBDNwr9gJ1HsnxyshTY)"><clipPath id="_clipPath_4WdbWMwlbcw9SULD8VIgPvBkhyfec0Ec"><rect x="0" y="0" width="128" height="128" transform="matrix(1,0,0,1,0,0)" fill="rgb(255,255,255)"/></clipPath><g clip-path="url(#_clipPath_4WdbWMwlbcw9SULD8VIgPvBkhyfec0Ec)"><g><g><radialGradient id="_rgradient_0" fx="0.5000018204656751" fy="0.5000417188151829" cx="0.5000018204656751" cy="0.5000417188151829" r="1" gradientTransform="matrix(109.862,0,0,11.985,8.989,111.861)" gradientUnits="userSpaceOnUse"><stop offset="0%" stop-opacity="0.2" style="stop-color:rgb(0,0,0)"/><stop offset="100%" stop-opacity="0" style="stop-color:rgb(0,0,0)"/></radialGradient><path d=" M 118.851 117.854 C 118.846 121.141 94.051 123.846 63.92 123.846 C 33.789 123.846 8.994 121.141 8.989 117.854 L 8.989 117.853 C 8.989 114.566 33.786 111.861 63.92 111.861 C 94.055 111.861 118.851 114.566 118.851 117.853 L 118.851 117.854 L 118.851 117.854 L 118.851 117.854 Z " fill="url(#_rgradient_0)"/><g style="opacity:0.4;"><g style="opacity:0.4;"><g style="opacity:0.4;"><g opacity="0.4"><radialGradient id="_rgradient_1" fx="-0.001409145353342467" fy="0.5" cx="-0.001409145353342467" cy="0.5" r="1" gradientTransform="matrix(14.193,0,0,4.994,103.66,115.857)" gradientUnits="userSpaceOnUse"><stop offset="0%" stop-opacity="0.4" style="stop-color:rgb(24,24,24)"/><stop offset="100%" stop-opacity="0" style="stop-color:rgb(24,24,24)"/></radialGradient><rect x="103.66" y="115.857" width="14.193" height="4.994" transform="matrix(1,0,0,1,0,0)" fill="url(#_rgradient_1)"/></g></g></g><g style="opacity:0.4;"><g style="opacity:0.4;"><g opacity="0.4"><radialGradient id="_rgradient_2" fx="1.0013457338124436" fy="0.5" cx="1.0013457338124436" cy="0.5" r="1" gradientTransform="matrix(14.193,0,0,4.994,9.988,115.857)" gradientUnits="userSpaceOnUse"><stop offset="0%" stop-opacity="0.4" style="stop-color:rgb(24,24,24)"/><stop offset="100%" stop-opacity="0" style="stop-color:rgb(24,24,24)"/></radialGradient><rect x="9.988" y="115.857" width="14.193" height="4.994" transform="matrix(1,0,0,1,0,0)" fill="url(#_rgradient_2)"/></g></g></g><g style="opacity:0.4;"><g style="opacity:0.4;"><g opacity="0.4"><linearGradient id="_lgradient_0" x1="0.5377906391545042" y1="1.0040048057669182" x2="0.5377906391545046" y2="1.0035081921461393" gradientTransform="matrix(79.48,0,0,4.994,24.18,115.857)" gradientUnits="userSpaceOnUse"><stop offset="0%" stop-opacity="0" style="stop-color:rgb(24,24,24)"/><stop offset="50%" stop-opacity="0.4" style="stop-color:rgb(24,24,24)"/><stop offset="100%" stop-opacity="0" style="stop-color:rgb(24,24,24)"/></linearGradient><rect x="24.18" y="115.857" width="79.48" height="4.994" transform="matrix(1,0,0,1,0,0)" fill="url(#_lgradient_0)"/></g></g></g></g><radialGradient id="_rgradient_3" fx="0.4999970551569111" fy="-0.0028741668548094013" cx="0.4999970551569111" cy="-0.0028741668548094013" r="1" gradientTransform="matrix(101.873,0,0,101.873,12.984,15.98)" gradientUnits="userSpaceOnUse"><stop offset="0%" stop-opacity="1" style="stop-color:rgb(244,216,77)"/><stop offset="100%" stop-opacity="1" style="stop-color:rgb(208,145,27)"/></radialGradient><path d=" M 114.857 20.474 C 114.857 17.994 112.843 15.98 110.362 15.98 L 17.478 15.98 C 14.998 15.98 12.984 17.994 12.984 20.474 L 12.984 113.358 C 12.984 115.839 14.998 117.853 17.478 117.853 L 110.362 117.853 C 112.843 117.853 114.857 115.839 114.857 113.358 L 114.857 20.474 L 114.857 20.474 L 114.857 20.474 Z " fill-rule="evenodd" fill="url(#_rgradient_3)"/></g></g></g><defs><filter id="FkORLvRYxVY5aLBUbMHHZr84V9c7EVfA" x="-200%" y="-200%" width="400%" height="400%" filterUnits="objectBoundingBox" color-interpolation-filters="sRGB"><feOffset xmlns="http://www.w3.org/2000/svg" in="SourceGraphic" dx="2" dy="2"/><feGaussianBlur xmlns="http://www.w3.org/2000/svg" stdDeviation="0.8587218125678057" result="pf_100_offsetBlur"/><feComposite xmlns="http://www.w3.org/2000/svg" in="SourceGraphic" in2="pf_100_offsetBlur" result="pf_100_inverse" operator="out"/><feFlood xmlns="http://www.w3.org/2000/svg" flood-color="#000000" flood-opacity="0.05" result="pf_100_color"/><feComposite xmlns="http://www.w3.org/2000/svg" in="pf_100_color" in2="pf_100_inverse" operator="in" result="pf_100_shadow"/><feComposite xmlns="http://www.w3.org/2000/svg" in="pf_100_shadow" in2="SourceGraphic" operator="over"/></filter></defs><g filter="url(#FkORLvRYxVY5aLBUbMHHZr84V9c7EVfA)"><linearGradient id="_lgradient_1" x1="0" y1="0.5" x2="1" y2="0.5" gradientTransform="matrix(52.546,0,0,44.316,37.727,41.842)" gradientUnits="userSpaceOnUse"><stop offset="0%" stop-opacity="1" style="stop-color:rgb(255,255,255)"/><stop offset="100%" stop-opacity="1" style="stop-color:rgb(219,219,219)"/></linearGradient><mask id="_mask_0Cd0GZ30tbTxaW2oBJGQCSUzlnF4yHvE" x="-200%" y="-200%" width="400%" height="400%"><rect x="-200%" y="-200%" width="400%" height="400%" style="fill:white;"/><path d=" M 47.954 58.887 L 41.136 58.887 C 39.253 58.887 37.727 60.413 37.727 62.296 L 37.727 82.749 C 37.727 84.632 39.253 86.158 41.136 86.158 L 47.954 86.158 C 49.836 86.158 51.363 84.632 51.363 82.749 L 51.363 62.296 C 51.363 60.413 49.836 58.887 47.954 58.887 Z  M 89.596 69.605 C 89.596 68.621 89.28 67.711 88.746 66.969 C 89.682 66.142 90.273 64.933 90.273 63.585 C 90.273 61.092 88.239 59.318 85.759 59.071 C 84.197 58.915 80.535 58.53 80.535 58.53 L 71.816 58.034 L 74.004 50.191 C 74.288 48.742 74.42 47.264 74.342 45.789 C 74.22 43.47 73.641 41.842 70.964 41.842 C 69.301 41.842 68.742 42.92 68.244 44.416 C 67.469 46.744 66.402 48.965 65.321 51.168 L 60.196 56.708 C 59.248 57.733 58.123 58.599 56.836 59.141 C 55.44 59.728 54.772 61.269 54.772 63.077 L 54.772 81.968 C 54.772 84.282 56.648 86.158 58.962 86.158 L 78.627 86.158 C 80.344 86.158 82.057 85.911 83.69 85.382 C 84.416 85.147 85.078 84.87 85.431 84.571 C 86.497 83.865 87.202 82.656 87.202 81.281 C 87.202 80.614 87.035 79.987 86.743 79.436 C 87.878 78.616 88.618 77.282 88.618 75.775 C 88.618 74.818 88.319 73.931 87.811 73.2 C 88.895 72.376 89.596 71.072 89.596 69.605 L 89.596 69.605 Z " fill-rule="evenodd" fill="black" stroke="none"/></mask><linearGradient id="_lgradient_2" x1="1" y1="0.4999999999999999" x2="0" y2="0.5"><stop offset="0%" stop-opacity="1" style="stop-color:rgb(238,217,68)"/><stop offset="100%" stop-opacity="1" style="stop-color:rgb(208,145,27)"/></linearGradient><path d=" M 47.954 58.887 L 41.136 58.887 C 39.253 58.887 37.727 60.413 37.727 62.296 L 37.727 82.749 C 37.727 84.632 39.253 86.158 41.136 86.158 L 47.954 86.158 C 49.836 86.158 51.363 84.632 51.363 82.749 L 51.363 62.296 C 51.363 60.413 49.836 58.887 47.954 58.887 Z  M 89.596 69.605 C 89.596 68.621 89.28 67.711 88.746 66.969 C 89.682 66.142 90.273 64.933 90.273 63.585 C 90.273 61.092 88.239 59.318 85.759 59.071 C 84.197 58.915 80.535 58.53 80.535 58.53 L 71.816 58.034 L 74.004 50.191 C 74.288 48.742 74.42 47.264 74.342 45.789 C 74.22 43.47 73.641 41.842 70.964 41.842 C 69.301 41.842 68.742 42.92 68.244 44.416 C 67.469 46.744 66.402 48.965 65.321 51.168 L 60.196 56.708 C 59.248 57.733 58.123 58.599 56.836 59.141 C 55.44 59.728 54.772 61.269 54.772 63.077 L 54.772 81.968 C 54.772 84.282 56.648 86.158 58.962 86.158 L 78.627 86.158 C 80.344 86.158 82.057 85.911 83.69 85.382 C 84.416 85.147 85.078 84.87 85.431 84.571 C 86.497 83.865 87.202 82.656 87.202 81.281 C 87.202 80.614 87.035 79.987 86.743 79.436 C 87.878 78.616 88.618 77.282 88.618 75.775 C 88.618 74.818 88.319 73.931 87.811 73.2 C 88.895 72.376 89.596 71.072 89.596 69.605 L 89.596 69.605 Z " fill-rule="evenodd" fill="url(#_lgradient_1)" mask="url(#_mask_0Cd0GZ30tbTxaW2oBJGQCSUzlnF4yHvE)" vector-effect="non-scaling-stroke" stroke-width="1" stroke="url(#_lgradient_2)" stroke-linejoin="round" stroke-linecap="butt" stroke-miterlimit="2"/><path d=" M 47.954 58.887 L 41.136 58.887 C 39.253 58.887 37.727 60.413 37.727 62.296 L 37.727 82.749 C 37.727 84.632 39.253 86.158 41.136 86.158 L 47.954 86.158 C 49.836 86.158 51.363 84.632 51.363 82.749 L 51.363 62.296 C 51.363 60.413 49.836 58.887 47.954 58.887 Z  M 89.596 69.605 C 89.596 68.621 89.28 67.711 88.746 66.969 C 89.682 66.142 90.273 64.933 90.273 63.585 C 90.273 61.092 88.239 59.318 85.759 59.071 C 84.197 58.915 80.535 58.53 80.535 58.53 L 71.816 58.034 L 74.004 50.191 C 74.288 48.742 74.42 47.264 74.342 45.789 C 74.22 43.47 73.641 41.842 70.964 41.842 C 69.301 41.842 68.742 42.92 68.244 44.416 C 67.469 46.744 66.402 48.965 65.321 51.168 L 60.196 56.708 C 59.248 57.733 58.123 58.599 56.836 59.141 C 55.44 59.728 54.772 61.269 54.772 63.077 L 54.772 81.968 C 54.772 84.282 56.648 86.158 58.962 86.158 L 78.627 86.158 C 80.344 86.158 82.057 85.911 83.69 85.382 C 84.416 85.147 85.078 84.87 85.431 84.571 C 86.497 83.865 87.202 82.656 87.202 81.281 C 87.202 80.614 87.035 79.987 86.743 79.436 C 87.878 78.616 88.618 77.282 88.618 75.775 C 88.618 74.818 88.319 73.931 87.811 73.2 C 88.895 72.376 89.596 71.072 89.596 69.605 L 89.596 69.605 Z " fill-rule="evenodd" fill="url(#_lgradient_1)"/></g></g></svg>