<?xml version="1.0" encoding="UTF-8" standalone="no"?><!-- Generator: Gravit.io --><svg xmlns="http://www.w3.org/2000/svg" xmlns:xlink="http://www.w3.org/1999/xlink" style="isolation:isolate" viewBox="0 0 16 16" width="16pt" height="16pt"><defs><clipPath id="_clipPath_qqwj3mPtZCKMzWyluSaorTOEJJT2XyGd"><rect width="16" height="16"/></clipPath></defs><g clip-path="url(#_clipPath_qqwj3mPtZCKMzWyluSaorTOEJJT2XyGd)"><clipPath id="_clipPath_QhECOEKUY2W5Of8BDAPTG2gz47EpL7Tl"><rect x="0" y="0" width="16" height="16" transform="matrix(1,0,0,1,0,0)" fill="rgb(255,255,255)"/></clipPath><g clip-path="url(#_clipPath_QhECOEKUY2W5Of8BDAPTG2gz47EpL7Tl)"><g><g><radialGradient id="_rgradient_20" fx="0.5000018204656751" fy="0.5000417188151829" cx="0.5000018204656751" cy="0.5000417188151829" r="1" gradientTransform="matrix(13.733,0,0,1.498,1.124,13.983)" gradientUnits="userSpaceOnUse"><stop offset="0%" stop-opacity="0.2" style="stop-color:rgb(0,0,0)"/><stop offset="100%" stop-opacity="0" style="stop-color:rgb(0,0,0)"/></radialGradient><path d=" M 14.856 14.732 C 14.856 15.143 11.756 15.481 7.99 15.481 C 4.224 15.481 1.124 15.143 1.124 14.732 L 1.124 14.732 C 1.124 14.321 4.223 13.983 7.99 13.983 C 11.757 13.983 14.856 14.321 14.856 14.732 L 14.856 14.732 L 14.856 14.732 L 14.856 14.732 Z " fill="url(#_rgradient_20)"/><g style="opacity:0.4;"><g style="opacity:0.4;"><g style="opacity:0.4;"><g opacity="0.4"><radialGradient id="_rgradient_21" fx="-0.001409145353342467" fy="0.5" cx="-0.001409145353342467" cy="0.5" r="1" gradientTransform="matrix(1.774,0,0,0.624,12.957,14.482)" gradientUnits="userSpaceOnUse"><stop offset="0%" stop-opacity="0.4" style="stop-color:rgb(24,24,24)"/><stop offset="100%" stop-opacity="0" style="stop-color:rgb(24,24,24)"/></radialGradient><rect x="12.957" y="14.482" width="1.774" height="0.624" transform="matrix(1,0,0,1,0,0)" fill="url(#_rgradient_21)"/></g></g></g><g style="opacity:0.4;"><g style="opacity:0.4;"><g opacity="0.4"><radialGradient id="_rgradient_22" fx="1.0013457338124436" fy="0.5" cx="1.0013457338124436" cy="0.5" r="1" gradientTransform="matrix(1.774,0,0,0.624,1.249,14.482)" gradientUnits="userSpaceOnUse"><stop offset="0%" stop-opacity="0.4" style="stop-color:rgb(24,24,24)"/><stop offset="100%" stop-opacity="0" style="stop-color:rgb(24,24,24)"/></radialGradient><rect x="1.249" y="14.482" width="1.774" height="0.624" transform="matrix(1,0,0,1,0,0)" fill="url(#_rgradient_22)"/></g></g></g><g style="opacity:0.4;"><g style="opacity:0.4;"><g opacity="0.4"><linearGradient id="_lgradient_15" x1="0.5377906391545042" y1="1.0040048057669182" x2="0.5377906391545046" y2="1.0035081921461393" gradientTransform="matrix(9.935,0,0,0.624,3.023,14.482)" gradientUnits="userSpaceOnUse"><stop offset="0%" stop-opacity="0" style="stop-color:rgb(24,24,24)"/><stop offset="50%" stop-opacity="0.4" style="stop-color:rgb(24,24,24)"/><stop offset="100%" stop-opacity="0" style="stop-color:rgb(24,24,24)"/></linearGradient><rect x="3.023" y="14.482" width="9.935" height="0.624" transform="matrix(1,0,0,1,0,0)" fill="url(#_lgradient_15)"/></g></g></g></g><radialGradient id="_rgradient_23" fx="0.4999970551569111" fy="-0.0028741668548094013" cx="0.4999970551569111" cy="-0.0028741668548094013" r="1" gradientTransform="matrix(12.734,0,0,12.734,1.623,1.998)" gradientUnits="userSpaceOnUse"><stop offset="0%" stop-opacity="1" style="stop-color:rgb(244,216,77)"/><stop offset="100%" stop-opacity="1" style="stop-color:rgb(208,145,27)"/></radialGradient><path d=" M 14.357 2.559 C 14.357 2.249 14.105 1.998 13.795 1.998 L 2.185 1.998 C 1.875 1.998 1.623 2.249 1.623 2.559 L 1.623 14.17 C 1.623 14.48 1.875 14.732 2.185 14.732 L 13.795 14.732 C 14.105 14.732 14.357 14.48 14.357 14.17 L 14.357 2.559 L 14.357 2.559 L 14.357 2.559 Z " fill-rule="evenodd" fill="url(#_rgradient_23)"/></g></g></g><defs><filter id="0wx01dnNL9w4VNcfEPJMEXBTTkeVVD6Z" x="-200%" y="-200%" width="400%" height="400%" filterUnits="objectBoundingBox" color-interpolation-filters="sRGB"><feOffset xmlns="http://www.w3.org/2000/svg" in="SourceGraphic" dx="2" dy="2"/><feGaussianBlur xmlns="http://www.w3.org/2000/svg" stdDeviation="0.8587218125678057" result="pf_100_offsetBlur"/><feComposite xmlns="http://www.w3.org/2000/svg" in="SourceGraphic" in2="pf_100_offsetBlur" result="pf_100_inverse" operator="out"/><feFlood xmlns="http://www.w3.org/2000/svg" flood-color="#000000" flood-opacity="0.05" result="pf_100_color"/><feComposite xmlns="http://www.w3.org/2000/svg" in="pf_100_color" in2="pf_100_inverse" operator="in" result="pf_100_shadow"/><feComposite xmlns="http://www.w3.org/2000/svg" in="pf_100_shadow" in2="SourceGraphic" operator="over"/></filter></defs><g filter="url(#0wx01dnNL9w4VNcfEPJMEXBTTkeVVD6Z)"><linearGradient id="_lgradient_16" x1="0" y1="0.5" x2="1" y2="0.5" gradientTransform="matrix(6.568,0,0,5.54,4.716,5.23)" gradientUnits="userSpaceOnUse"><stop offset="0%" stop-opacity="1" style="stop-color:rgb(255,255,255)"/><stop offset="100%" stop-opacity="1" style="stop-color:rgb(219,219,219)"/></linearGradient><mask id="_mask_Hmnv3as5MJbF88R1rPHe0qtBFIUaAjQN" x="-200%" y="-200%" width="400%" height="400%"><rect x="-200%" y="-200%" width="400%" height="400%" style="fill:white;"/><path d=" M 5.994 7.361 L 5.142 7.361 C 4.907 7.361 4.716 7.552 4.716 7.787 L 4.716 10.344 C 4.716 10.579 4.907 10.77 5.142 10.77 L 5.994 10.77 C 6.23 10.77 6.42 10.579 6.42 10.344 L 6.42 7.787 C 6.42 7.552 6.23 7.361 5.994 7.361 Z  M 11.199 8.701 C 11.199 8.578 11.16 8.464 11.093 8.371 C 11.21 8.268 11.284 8.117 11.284 7.948 C 11.284 7.637 11.03 7.415 10.72 7.384 C 10.525 7.364 10.067 7.316 10.067 7.316 L 8.977 7.254 L 9.25 6.274 C 9.286 6.093 9.303 5.908 9.293 5.724 C 9.278 5.434 9.205 5.23 8.871 5.23 C 8.663 5.23 8.593 5.365 8.531 5.552 C 8.434 5.843 8.3 6.121 8.165 6.396 L 7.525 7.088 C 7.406 7.217 7.265 7.325 7.104 7.393 C 6.93 7.466 6.846 7.659 6.846 7.885 L 6.846 10.246 C 6.846 10.535 7.081 10.77 7.37 10.77 L 9.828 10.77 C 10.043 10.77 10.257 10.739 10.461 10.673 C 10.552 10.643 10.635 10.609 10.679 10.571 C 10.812 10.483 10.9 10.332 10.9 10.16 C 10.9 10.077 10.879 9.998 10.843 9.93 C 10.985 9.827 11.077 9.66 11.077 9.472 C 11.077 9.352 11.04 9.241 10.976 9.15 C 11.112 9.047 11.199 8.884 11.199 8.701 L 11.199 8.701 Z " fill-rule="evenodd" fill="black" stroke="none"/></mask><linearGradient id="_lgradient_17" x1="1" y1="0.4999999999999999" x2="0" y2="0.5"><stop offset="0%" stop-opacity="1" style="stop-color:rgb(238,217,68)"/><stop offset="100%" stop-opacity="1" style="stop-color:rgb(208,145,27)"/></linearGradient><path d=" M 5.994 7.361 L 5.142 7.361 C 4.907 7.361 4.716 7.552 4.716 7.787 L 4.716 10.344 C 4.716 10.579 4.907 10.77 5.142 10.77 L 5.994 10.77 C 6.23 10.77 6.42 10.579 6.42 10.344 L 6.42 7.787 C 6.42 7.552 6.23 7.361 5.994 7.361 Z  M 11.199 8.701 C 11.199 8.578 11.16 8.464 11.093 8.371 C 11.21 8.268 11.284 8.117 11.284 7.948 C 11.284 7.637 11.03 7.415 10.72 7.384 C 10.525 7.364 10.067 7.316 10.067 7.316 L 8.977 7.254 L 9.25 6.274 C 9.286 6.093 9.303 5.908 9.293 5.724 C 9.278 5.434 9.205 5.23 8.871 5.23 C 8.663 5.23 8.593 5.365 8.531 5.552 C 8.434 5.843 8.3 6.121 8.165 6.396 L 7.525 7.088 C 7.406 7.217 7.265 7.325 7.104 7.393 C 6.93 7.466 6.846 7.659 6.846 7.885 L 6.846 10.246 C 6.846 10.535 7.081 10.77 7.37 10.77 L 9.828 10.77 C 10.043 10.77 10.257 10.739 10.461 10.673 C 10.552 10.643 10.635 10.609 10.679 10.571 C 10.812 10.483 10.9 10.332 10.9 10.16 C 10.9 10.077 10.879 9.998 10.843 9.93 C 10.985 9.827 11.077 9.66 11.077 9.472 C 11.077 9.352 11.04 9.241 10.976 9.15 C 11.112 9.047 11.199 8.884 11.199 8.701 L 11.199 8.701 Z " fill-rule="evenodd" fill="url(#_lgradient_16)" mask="url(#_mask_Hmnv3as5MJbF88R1rPHe0qtBFIUaAjQN)" vector-effect="non-scaling-stroke" stroke-width="0.2" stroke="url(#_lgradient_17)" stroke-linejoin="round" stroke-linecap="butt" stroke-miterlimit="2"/><path d=" M 5.994 7.361 L 5.142 7.361 C 4.907 7.361 4.716 7.552 4.716 7.787 L 4.716 10.344 C 4.716 10.579 4.907 10.77 5.142 10.77 L 5.994 10.77 C 6.23 10.77 6.42 10.579 6.42 10.344 L 6.42 7.787 C 6.42 7.552 6.23 7.361 5.994 7.361 Z  M 11.199 8.701 C 11.199 8.578 11.16 8.464 11.093 8.371 C 11.21 8.268 11.284 8.117 11.284 7.948 C 11.284 7.637 11.03 7.415 10.72 7.384 C 10.525 7.364 10.067 7.316 10.067 7.316 L 8.977 7.254 L 9.25 6.274 C 9.286 6.093 9.303 5.908 9.293 5.724 C 9.278 5.434 9.205 5.23 8.871 5.23 C 8.663 5.23 8.593 5.365 8.531 5.552 C 8.434 5.843 8.3 6.121 8.165 6.396 L 7.525 7.088 C 7.406 7.217 7.265 7.325 7.104 7.393 C 6.93 7.466 6.846 7.659 6.846 7.885 L 6.846 10.246 C 6.846 10.535 7.081 10.77 7.37 10.77 L 9.828 10.77 C 10.043 10.77 10.257 10.739 10.461 10.673 C 10.552 10.643 10.635 10.609 10.679 10.571 C 10.812 10.483 10.9 10.332 10.9 10.16 C 10.9 10.077 10.879 9.998 10.843 9.93 C 10.985 9.827 11.077 9.66 11.077 9.472 C 11.077 9.352 11.04 9.241 10.976 9.15 C 11.112 9.047 11.199 8.884 11.199 8.701 L 11.199 8.701 Z " fill-rule="evenodd" fill="url(#_lgradient_16)"/></g></g></svg>