<?xml version="1.0" encoding="UTF-8" standalone="no"?><!-- Generator: Gravit.io --><svg xmlns="http://www.w3.org/2000/svg" xmlns:xlink="http://www.w3.org/1999/xlink" style="isolation:isolate" viewBox="0 0 32 32" width="32pt" height="32pt"><defs><clipPath id="_clipPath_0P2xyOng4XPzYMfiLMdNdKQwsSv9XaWb"><rect width="32" height="32"/></clipPath></defs><g clip-path="url(#_clipPath_0P2xyOng4XPzYMfiLMdNdKQwsSv9XaWb)"><clipPath id="_clipPath_7Xw0kAKAEHGqQNpetRtizIUNnUdsdDIL"><rect x="0" y="0" width="32" height="32" transform="matrix(1,0,0,1,0,0)" fill="rgb(255,255,255)"/></clipPath><g clip-path="url(#_clipPath_7Xw0kAKAEHGqQNpetRtizIUNnUdsdDIL)"><g><g><radialGradient id="_rgradient_12" fx="0.5000018204656751" fy="0.5000417188151829" cx="0.5000018204656751" cy="0.5000417188151829" r="1" gradientTransform="matrix(27.466,0,0,2.996,2.247,27.965)" gradientUnits="userSpaceOnUse"><stop offset="0%" stop-opacity="0.2" style="stop-color:rgb(0,0,0)"/><stop offset="100%" stop-opacity="0" style="stop-color:rgb(0,0,0)"/></radialGradient><path d=" M 29.713 29.464 C 29.712 30.285 23.513 30.962 15.98 30.962 C 8.447 30.962 2.249 30.285 2.247 29.464 L 2.247 29.463 C 2.247 28.642 8.447 27.965 15.98 27.965 C 23.514 27.965 29.713 28.642 29.713 29.463 L 29.713 29.464 L 29.713 29.464 L 29.713 29.464 Z " fill="url(#_rgradient_12)"/><g style="opacity:0.4;"><g style="opacity:0.4;"><g style="opacity:0.4;"><g opacity="0.4"><radialGradient id="_rgradient_13" fx="-0.001409145353342467" fy="0.5" cx="-0.001409145353342467" cy="0.5" r="1" gradientTransform="matrix(3.548,0,0,1.249,25.915,28.964)" gradientUnits="userSpaceOnUse"><stop offset="0%" stop-opacity="0.4" style="stop-color:rgb(24,24,24)"/><stop offset="100%" stop-opacity="0" style="stop-color:rgb(24,24,24)"/></radialGradient><rect x="25.915" y="28.964" width="3.548" height="1.249" transform="matrix(1,0,0,1,0,0)" fill="url(#_rgradient_13)"/></g></g></g><g style="opacity:0.4;"><g style="opacity:0.4;"><g opacity="0.4"><radialGradient id="_rgradient_14" fx="1.0013457338124436" fy="0.5" cx="1.0013457338124436" cy="0.5" r="1" gradientTransform="matrix(3.548,0,0,1.249,2.497,28.964)" gradientUnits="userSpaceOnUse"><stop offset="0%" stop-opacity="0.4" style="stop-color:rgb(24,24,24)"/><stop offset="100%" stop-opacity="0" style="stop-color:rgb(24,24,24)"/></radialGradient><rect x="2.497" y="28.964" width="3.548" height="1.249" transform="matrix(1,0,0,1,0,0)" fill="url(#_rgradient_14)"/></g></g></g><g style="opacity:0.4;"><g style="opacity:0.4;"><g opacity="0.4"><linearGradient id="_lgradient_9" x1="0.5377906391545042" y1="1.0040048057669182" x2="0.5377906391545046" y2="1.0035081921461393" gradientTransform="matrix(19.87,0,0,1.249,6.045,28.964)" gradientUnits="userSpaceOnUse"><stop offset="0%" stop-opacity="0" style="stop-color:rgb(24,24,24)"/><stop offset="50%" stop-opacity="0.4" style="stop-color:rgb(24,24,24)"/><stop offset="100%" stop-opacity="0" style="stop-color:rgb(24,24,24)"/></linearGradient><rect x="6.045" y="28.964" width="19.87" height="1.249" transform="matrix(1,0,0,1,0,0)" fill="url(#_lgradient_9)"/></g></g></g></g><radialGradient id="_rgradient_15" fx="0.4999970551569111" fy="-0.0028741668548094013" cx="0.4999970551569111" cy="-0.0028741668548094013" r="1" gradientTransform="matrix(25.468,0,0,25.468,3.246,3.995)" gradientUnits="userSpaceOnUse"><stop offset="0%" stop-opacity="1" style="stop-color:rgb(244,216,77)"/><stop offset="100%" stop-opacity="1" style="stop-color:rgb(208,145,27)"/></radialGradient><path d=" M 28.714 5.119 C 28.714 4.499 28.211 3.995 27.591 3.995 L 4.37 3.995 C 3.75 3.995 3.246 4.499 3.246 5.119 L 3.246 28.34 C 3.246 28.96 3.75 29.463 4.37 29.463 L 27.591 29.463 C 28.211 29.463 28.714 28.96 28.714 28.34 L 28.714 5.119 L 28.714 5.119 L 28.714 5.119 Z " fill-rule="evenodd" fill="url(#_rgradient_15)"/></g></g></g><defs><filter id="Wq8H1kq6CiE5QCYl0qXktvMChuvLRc89" x="-200%" y="-200%" width="400%" height="400%" filterUnits="objectBoundingBox" color-interpolation-filters="sRGB"><feOffset xmlns="http://www.w3.org/2000/svg" in="SourceGraphic" dx="2" dy="2"/><feGaussianBlur xmlns="http://www.w3.org/2000/svg" stdDeviation="0.8587218125678057" result="pf_100_offsetBlur"/><feComposite xmlns="http://www.w3.org/2000/svg" in="SourceGraphic" in2="pf_100_offsetBlur" result="pf_100_inverse" operator="out"/><feFlood xmlns="http://www.w3.org/2000/svg" flood-color="#000000" flood-opacity="0.05" result="pf_100_color"/><feComposite xmlns="http://www.w3.org/2000/svg" in="pf_100_color" in2="pf_100_inverse" operator="in" result="pf_100_shadow"/><feComposite xmlns="http://www.w3.org/2000/svg" in="pf_100_shadow" in2="SourceGraphic" operator="over"/></filter></defs><g filter="url(#Wq8H1kq6CiE5QCYl0qXktvMChuvLRc89)"><linearGradient id="_lgradient_10" x1="0" y1="0.5" x2="1" y2="0.5" gradientTransform="matrix(13.137,0,0,11.079,9.432,10.46)" gradientUnits="userSpaceOnUse"><stop offset="0%" stop-opacity="1" style="stop-color:rgb(255,255,255)"/><stop offset="100%" stop-opacity="1" style="stop-color:rgb(219,219,219)"/></linearGradient><mask id="_mask_7ayNmNaIRpUXBLz9up0y2oUdUq2lc07F" x="-200%" y="-200%" width="400%" height="400%"><rect x="-200%" y="-200%" width="400%" height="400%" style="fill:white;"/><path d=" M 11.988 14.722 L 10.284 14.722 C 9.813 14.722 9.432 15.103 9.432 15.574 L 9.432 20.687 C 9.432 21.158 9.813 21.54 10.284 21.54 L 11.988 21.54 C 12.459 21.54 12.841 21.158 12.841 20.687 L 12.841 15.574 C 12.841 15.103 12.459 14.722 11.988 14.722 Z  M 22.399 17.401 C 22.399 17.155 22.32 16.928 22.186 16.742 C 22.42 16.536 22.568 16.233 22.568 15.896 C 22.568 15.273 22.06 14.829 21.44 14.768 C 21.049 14.729 20.134 14.632 20.134 14.632 L 17.954 14.509 L 18.501 12.548 C 18.572 12.185 18.605 11.816 18.586 11.447 C 18.555 10.867 18.41 10.46 17.741 10.46 C 17.325 10.46 17.186 10.73 17.061 11.104 C 16.867 11.686 16.601 12.241 16.33 12.792 L 15.049 14.177 C 14.812 14.433 14.531 14.65 14.209 14.785 C 13.86 14.932 13.693 15.317 13.693 15.769 L 13.693 20.492 C 13.693 21.071 14.162 21.54 14.74 21.54 L 19.657 21.54 C 20.086 21.54 20.514 21.478 20.923 21.345 C 21.104 21.287 21.269 21.218 21.358 21.143 C 21.624 20.966 21.8 20.664 21.8 20.32 C 21.8 20.154 21.759 19.997 21.686 19.859 C 21.97 19.654 22.154 19.321 22.154 18.944 C 22.154 18.704 22.08 18.483 21.953 18.3 C 22.224 18.094 22.399 17.768 22.399 17.401 L 22.399 17.401 Z " fill-rule="evenodd" fill="black" stroke="none"/></mask><linearGradient id="_lgradient_11" x1="1" y1="0.4999999999999999" x2="0" y2="0.5"><stop offset="0%" stop-opacity="1" style="stop-color:rgb(238,217,68)"/><stop offset="100%" stop-opacity="1" style="stop-color:rgb(208,145,27)"/></linearGradient><path d=" M 11.988 14.722 L 10.284 14.722 C 9.813 14.722 9.432 15.103 9.432 15.574 L 9.432 20.687 C 9.432 21.158 9.813 21.54 10.284 21.54 L 11.988 21.54 C 12.459 21.54 12.841 21.158 12.841 20.687 L 12.841 15.574 C 12.841 15.103 12.459 14.722 11.988 14.722 Z  M 22.399 17.401 C 22.399 17.155 22.32 16.928 22.186 16.742 C 22.42 16.536 22.568 16.233 22.568 15.896 C 22.568 15.273 22.06 14.829 21.44 14.768 C 21.049 14.729 20.134 14.632 20.134 14.632 L 17.954 14.509 L 18.501 12.548 C 18.572 12.185 18.605 11.816 18.586 11.447 C 18.555 10.867 18.41 10.46 17.741 10.46 C 17.325 10.46 17.186 10.73 17.061 11.104 C 16.867 11.686 16.601 12.241 16.33 12.792 L 15.049 14.177 C 14.812 14.433 14.531 14.65 14.209 14.785 C 13.86 14.932 13.693 15.317 13.693 15.769 L 13.693 20.492 C 13.693 21.071 14.162 21.54 14.74 21.54 L 19.657 21.54 C 20.086 21.54 20.514 21.478 20.923 21.345 C 21.104 21.287 21.269 21.218 21.358 21.143 C 21.624 20.966 21.8 20.664 21.8 20.32 C 21.8 20.154 21.759 19.997 21.686 19.859 C 21.97 19.654 22.154 19.321 22.154 18.944 C 22.154 18.704 22.08 18.483 21.953 18.3 C 22.224 18.094 22.399 17.768 22.399 17.401 L 22.399 17.401 Z " fill-rule="evenodd" fill="url(#_lgradient_10)" mask="url(#_mask_7ayNmNaIRpUXBLz9up0y2oUdUq2lc07F)" vector-effect="non-scaling-stroke" stroke-width="0.2" stroke="url(#_lgradient_11)" stroke-linejoin="round" stroke-linecap="butt" stroke-miterlimit="2"/><path d=" M 11.988 14.722 L 10.284 14.722 C 9.813 14.722 9.432 15.103 9.432 15.574 L 9.432 20.687 C 9.432 21.158 9.813 21.54 10.284 21.54 L 11.988 21.54 C 12.459 21.54 12.841 21.158 12.841 20.687 L 12.841 15.574 C 12.841 15.103 12.459 14.722 11.988 14.722 Z  M 22.399 17.401 C 22.399 17.155 22.32 16.928 22.186 16.742 C 22.42 16.536 22.568 16.233 22.568 15.896 C 22.568 15.273 22.06 14.829 21.44 14.768 C 21.049 14.729 20.134 14.632 20.134 14.632 L 17.954 14.509 L 18.501 12.548 C 18.572 12.185 18.605 11.816 18.586 11.447 C 18.555 10.867 18.41 10.46 17.741 10.46 C 17.325 10.46 17.186 10.73 17.061 11.104 C 16.867 11.686 16.601 12.241 16.33 12.792 L 15.049 14.177 C 14.812 14.433 14.531 14.65 14.209 14.785 C 13.86 14.932 13.693 15.317 13.693 15.769 L 13.693 20.492 C 13.693 21.071 14.162 21.54 14.74 21.54 L 19.657 21.54 C 20.086 21.54 20.514 21.478 20.923 21.345 C 21.104 21.287 21.269 21.218 21.358 21.143 C 21.624 20.966 21.8 20.664 21.8 20.32 C 21.8 20.154 21.759 19.997 21.686 19.859 C 21.97 19.654 22.154 19.321 22.154 18.944 C 22.154 18.704 22.08 18.483 21.953 18.3 C 22.224 18.094 22.399 17.768 22.399 17.401 L 22.399 17.401 Z " fill-rule="evenodd" fill="url(#_lgradient_10)"/></g></g></svg>