<?xml version="1.0" encoding="UTF-8" standalone="no"?><!-- Generator: Gravit.io --><svg xmlns="http://www.w3.org/2000/svg" xmlns:xlink="http://www.w3.org/1999/xlink" style="isolation:isolate" viewBox="0 0 64 64" width="64pt" height="64pt"><defs><clipPath id="_clipPath_iDRrFP2XRrSit9MYr3wJg5TjMojM0XzR"><rect width="64" height="64"/></clipPath></defs><g clip-path="url(#_clipPath_iDRrFP2XRrSit9MYr3wJg5TjMojM0XzR)"><clipPath id="_clipPath_LNv0LCkW465LRgOlI4JFcj8iXrdGQMzO"><rect x="0" y="0" width="64" height="64" transform="matrix(1,0,0,1,0,0)" fill="rgb(255,255,255)"/></clipPath><g clip-path="url(#_clipPath_LNv0LCkW465LRgOlI4JFcj8iXrdGQMzO)"><g><g><radialGradient id="_rgradient_4" fx="0.5000018204656751" fy="0.5000417188151829" cx="0.5000018204656751" cy="0.5000417188151829" r="1" gradientTransform="matrix(54.931,0,0,5.993,4.495,55.931)" gradientUnits="userSpaceOnUse"><stop offset="0%" stop-opacity="0.2" style="stop-color:rgb(0,0,0)"/><stop offset="100%" stop-opacity="0" style="stop-color:rgb(0,0,0)"/></radialGradient><path d=" M 59.426 58.927 C 59.423 60.571 47.026 61.923 31.96 61.923 C 16.895 61.923 4.497 60.571 4.495 58.927 L 4.495 58.927 C 4.495 57.283 16.893 55.931 31.96 55.931 C 47.028 55.931 59.426 57.283 59.426 58.927 L 59.426 58.927 L 59.426 58.927 L 59.426 58.927 Z " fill="url(#_rgradient_4)"/><g style="opacity:0.4;"><g style="opacity:0.4;"><g style="opacity:0.4;"><g opacity="0.4"><radialGradient id="_rgradient_5" fx="-0.001409145353342467" fy="0.5" cx="-0.001409145353342467" cy="0.5" r="1" gradientTransform="matrix(7.097,0,0,2.497,51.83,57.929)" gradientUnits="userSpaceOnUse"><stop offset="0%" stop-opacity="0.4" style="stop-color:rgb(24,24,24)"/><stop offset="100%" stop-opacity="0" style="stop-color:rgb(24,24,24)"/></radialGradient><rect x="51.83" y="57.929" width="7.097" height="2.497" transform="matrix(1,0,0,1,0,0)" fill="url(#_rgradient_5)"/></g></g></g><g style="opacity:0.4;"><g style="opacity:0.4;"><g opacity="0.4"><radialGradient id="_rgradient_6" fx="1.0013457338124436" fy="0.5" cx="1.0013457338124436" cy="0.5" r="1" gradientTransform="matrix(7.097,0,0,2.497,4.994,57.929)" gradientUnits="userSpaceOnUse"><stop offset="0%" stop-opacity="0.4" style="stop-color:rgb(24,24,24)"/><stop offset="100%" stop-opacity="0" style="stop-color:rgb(24,24,24)"/></radialGradient><rect x="4.994" y="57.929" width="7.096" height="2.497" transform="matrix(1,0,0,1,0,0)" fill="url(#_rgradient_6)"/></g></g></g><g style="opacity:0.4;"><g style="opacity:0.4;"><g opacity="0.4"><linearGradient id="_lgradient_3" x1="0.5377906391545042" y1="1.0040048057669182" x2="0.5377906391545046" y2="1.0035081921461393" gradientTransform="matrix(39.74,0,0,2.497,12.09,57.929)" gradientUnits="userSpaceOnUse"><stop offset="0%" stop-opacity="0" style="stop-color:rgb(24,24,24)"/><stop offset="50%" stop-opacity="0.4" style="stop-color:rgb(24,24,24)"/><stop offset="100%" stop-opacity="0" style="stop-color:rgb(24,24,24)"/></linearGradient><rect x="12.09" y="57.929" width="39.74" height="2.497" transform="matrix(1,0,0,1,0,0)" fill="url(#_lgradient_3)"/></g></g></g></g><radialGradient id="_rgradient_7" fx="0.4999970551569111" fy="-0.0028741668548094013" cx="0.4999970551569111" cy="-0.0028741668548094013" r="1" gradientTransform="matrix(50.937,0,0,50.936,6.492,7.99)" gradientUnits="userSpaceOnUse"><stop offset="0%" stop-opacity="1" style="stop-color:rgb(244,216,77)"/><stop offset="100%" stop-opacity="1" style="stop-color:rgb(208,145,27)"/></radialGradient><path d=" M 57.429 10.237 C 57.429 8.997 56.422 7.99 55.181 7.99 L 8.739 7.99 C 7.499 7.99 6.492 8.997 6.492 10.237 L 6.492 56.679 C 6.492 57.92 7.499 58.927 8.739 58.927 L 55.181 58.927 C 56.422 58.927 57.429 57.92 57.429 56.679 L 57.429 10.237 L 57.429 10.237 L 57.429 10.237 Z " fill-rule="evenodd" fill="url(#_rgradient_7)"/></g></g></g><defs><filter id="XhJ9IfmKHXUd41inHcBZCY90B7wWrHAh" x="-200%" y="-200%" width="400%" height="400%" filterUnits="objectBoundingBox" color-interpolation-filters="sRGB"><feOffset xmlns="http://www.w3.org/2000/svg" in="SourceGraphic" dx="2" dy="2"/><feGaussianBlur xmlns="http://www.w3.org/2000/svg" stdDeviation="0.8587218125678057" result="pf_100_offsetBlur"/><feComposite xmlns="http://www.w3.org/2000/svg" in="SourceGraphic" in2="pf_100_offsetBlur" result="pf_100_inverse" operator="out"/><feFlood xmlns="http://www.w3.org/2000/svg" flood-color="#000000" flood-opacity="0.05" result="pf_100_color"/><feComposite xmlns="http://www.w3.org/2000/svg" in="pf_100_color" in2="pf_100_inverse" operator="in" result="pf_100_shadow"/><feComposite xmlns="http://www.w3.org/2000/svg" in="pf_100_shadow" in2="SourceGraphic" operator="over"/></filter></defs><g filter="url(#XhJ9IfmKHXUd41inHcBZCY90B7wWrHAh)"><linearGradient id="_lgradient_4" x1="0" y1="0.5" x2="1" y2="0.5" gradientTransform="matrix(26.273,0,0,22.158,18.863,20.921)" gradientUnits="userSpaceOnUse"><stop offset="0%" stop-opacity="1" style="stop-color:rgb(255,255,255)"/><stop offset="100%" stop-opacity="1" style="stop-color:rgb(219,219,219)"/></linearGradient><mask id="_mask_ILYLAKUH0sEsgsAFuuCcDqu1OwsRe63W" x="-200%" y="-200%" width="400%" height="400%"><rect x="-200%" y="-200%" width="400%" height="400%" style="fill:white;"/><path d=" M 23.977 29.443 L 20.568 29.443 C 19.627 29.443 18.863 30.206 18.863 31.148 L 18.863 41.375 C 18.863 42.316 19.627 43.079 20.568 43.079 L 23.977 43.079 C 24.918 43.079 25.681 42.316 25.681 41.375 L 25.681 31.148 C 25.681 30.206 24.918 29.443 23.977 29.443 Z  M 44.798 34.802 C 44.798 34.31 44.64 33.855 44.373 33.485 C 44.841 33.071 45.137 32.467 45.137 31.793 C 45.137 30.546 44.12 29.659 42.879 29.535 C 42.098 29.458 40.267 29.265 40.267 29.265 L 35.908 29.017 L 37.002 25.096 C 37.144 24.371 37.21 23.632 37.171 22.895 C 37.11 21.735 36.821 20.921 35.482 20.921 C 34.651 20.921 34.371 21.46 34.122 22.208 C 33.735 23.372 33.201 24.483 32.66 25.584 L 30.098 28.354 C 29.624 28.866 29.061 29.3 28.418 29.57 C 27.72 29.864 27.386 30.634 27.386 31.538 L 27.386 40.984 C 27.386 42.141 28.324 43.079 29.481 43.079 L 39.313 43.079 C 40.172 43.079 41.028 42.956 41.845 42.691 C 42.208 42.573 42.539 42.435 42.715 42.285 C 43.249 41.932 43.601 41.328 43.601 40.64 C 43.601 40.307 43.517 39.993 43.371 39.718 C 43.939 39.308 44.309 38.641 44.309 37.887 C 44.309 37.409 44.16 36.965 43.905 36.6 C 44.448 36.188 44.798 35.536 44.798 34.802 L 44.798 34.802 Z " fill-rule="evenodd" fill="black" stroke="none"/></mask><linearGradient id="_lgradient_5" x1="1" y1="0.4999999999999999" x2="0" y2="0.5"><stop offset="0%" stop-opacity="1" style="stop-color:rgb(238,217,68)"/><stop offset="100%" stop-opacity="1" style="stop-color:rgb(208,145,27)"/></linearGradient><path d=" M 23.977 29.443 L 20.568 29.443 C 19.627 29.443 18.863 30.206 18.863 31.148 L 18.863 41.375 C 18.863 42.316 19.627 43.079 20.568 43.079 L 23.977 43.079 C 24.918 43.079 25.681 42.316 25.681 41.375 L 25.681 31.148 C 25.681 30.206 24.918 29.443 23.977 29.443 Z  M 44.798 34.802 C 44.798 34.31 44.64 33.855 44.373 33.485 C 44.841 33.071 45.137 32.467 45.137 31.793 C 45.137 30.546 44.12 29.659 42.879 29.535 C 42.098 29.458 40.267 29.265 40.267 29.265 L 35.908 29.017 L 37.002 25.096 C 37.144 24.371 37.21 23.632 37.171 22.895 C 37.11 21.735 36.821 20.921 35.482 20.921 C 34.651 20.921 34.371 21.46 34.122 22.208 C 33.735 23.372 33.201 24.483 32.66 25.584 L 30.098 28.354 C 29.624 28.866 29.061 29.3 28.418 29.57 C 27.72 29.864 27.386 30.634 27.386 31.538 L 27.386 40.984 C 27.386 42.141 28.324 43.079 29.481 43.079 L 39.313 43.079 C 40.172 43.079 41.028 42.956 41.845 42.691 C 42.208 42.573 42.539 42.435 42.715 42.285 C 43.249 41.932 43.601 41.328 43.601 40.64 C 43.601 40.307 43.517 39.993 43.371 39.718 C 43.939 39.308 44.309 38.641 44.309 37.887 C 44.309 37.409 44.16 36.965 43.905 36.6 C 44.448 36.188 44.798 35.536 44.798 34.802 L 44.798 34.802 Z " fill-rule="evenodd" fill="url(#_lgradient_4)" mask="url(#_mask_ILYLAKUH0sEsgsAFuuCcDqu1OwsRe63W)" vector-effect="non-scaling-stroke" stroke-width="0.6" stroke="url(#_lgradient_5)" stroke-linejoin="round" stroke-linecap="butt" stroke-miterlimit="2"/><path d=" M 23.977 29.443 L 20.568 29.443 C 19.627 29.443 18.863 30.206 18.863 31.148 L 18.863 41.375 C 18.863 42.316 19.627 43.079 20.568 43.079 L 23.977 43.079 C 24.918 43.079 25.681 42.316 25.681 41.375 L 25.681 31.148 C 25.681 30.206 24.918 29.443 23.977 29.443 Z  M 44.798 34.802 C 44.798 34.31 44.64 33.855 44.373 33.485 C 44.841 33.071 45.137 32.467 45.137 31.793 C 45.137 30.546 44.12 29.659 42.879 29.535 C 42.098 29.458 40.267 29.265 40.267 29.265 L 35.908 29.017 L 37.002 25.096 C 37.144 24.371 37.21 23.632 37.171 22.895 C 37.11 21.735 36.821 20.921 35.482 20.921 C 34.651 20.921 34.371 21.46 34.122 22.208 C 33.735 23.372 33.201 24.483 32.66 25.584 L 30.098 28.354 C 29.624 28.866 29.061 29.3 28.418 29.57 C 27.72 29.864 27.386 30.634 27.386 31.538 L 27.386 40.984 C 27.386 42.141 28.324 43.079 29.481 43.079 L 39.313 43.079 C 40.172 43.079 41.028 42.956 41.845 42.691 C 42.208 42.573 42.539 42.435 42.715 42.285 C 43.249 41.932 43.601 41.328 43.601 40.64 C 43.601 40.307 43.517 39.993 43.371 39.718 C 43.939 39.308 44.309 38.641 44.309 37.887 C 44.309 37.409 44.16 36.965 43.905 36.6 C 44.448 36.188 44.798 35.536 44.798 34.802 L 44.798 34.802 Z " fill-rule="evenodd" fill="url(#_lgradient_4)"/></g></g></svg>